<?xml version="1.0" encoding="UTF-8" standalone="no"?>
<!DOCTYPE svg PUBLIC "-//W3C//DTD SVG 1.1//EN" "http://www.w3.org/Graphics/SVG/1.1/DTD/svg11.dtd">
<svg xmlns="http://www.w3.org/2000/svg" version="1.1" viewBox="0.00 0.00 291.00 291.00">
<path fill="#0099ff" d="
  M 90.11 71.24
  A 9.41 9.41 0.0 0 1 80.70 80.65
  A 9.41 9.41 0.0 0 1 71.29 71.24
  A 9.41 9.41 0.0 0 1 80.70 61.83
  A 9.41 9.41 0.0 0 1 90.11 71.24
  Z
  M 79.90 69.32
  C 82.11 72.28 84.47 74.84 80.55 78.14
  Q 79.93 78.67 80.72 78.84
  Q 82.36 79.21 83.74 78.25
  C 88.38 75.03 89.30 67.25 83.39 64.60
  C 80.19 63.16 77.89 66.63 79.90 69.32
  Z"
/>
<path fill="#0099ff" d="
  M 209.5616 80.7030
  A 9.53 9.30 96.8 0 1 201.4554 70.1388
  A 9.53 9.30 96.8 0 1 211.8184 61.7770
  A 9.53 9.30 96.8 0 1 219.9246 72.3412
  A 9.53 9.30 96.8 0 1 209.5616 80.7030
  Z
  M 209.90 69.33
  C 212.12 72.29 214.43 74.78 210.61 78.11
  Q 209.87 78.76 210.84 78.89
  Q 212.86 79.16 214.45 77.76
  C 218.46 74.21 218.98 67.02 213.33 64.57
  C 210.13 63.18 207.92 66.68 209.90 69.33
  Z"
/>
<path fill="#0099ff" d="
  M 38.87 86.25
  Q 40.47 85.19 42.31 84.37
  C 52.45 79.82 63.05 86.23 63.73 97.31
  C 64.36 107.70 62.77 122.14 51.90 127.12
  Q 43.85 130.81 36.03 125.62
  Q 35.47 125.24 35.51 125.92
  C 35.80 130.89 37.24 135.73 38.52 140.58
  Q 38.69 141.24 38.05 141.48
  L 26.31 145.80
  A 0.28 0.28 0.0 0 1 25.94 145.61
  C 20.57 124.84 19.48 103.24 25.75 82.75
  Q 25.92 82.19 26.50 82.26
  L 38.57 83.80
  Q 39.31 83.89 39.00 84.57
  L 38.42 85.87
  Q 37.98 86.84 38.87 86.25
  Z
  M 38.31 98.45
  L 36.55 94.99
  Q 36.13 94.17 35.97 95.08
  Q 34.36 104.06 34.19 112.62
  Q 34.18 113.16 34.57 113.53
  C 40.83 119.35 49.23 118.39 51.23 108.97
  C 52.12 104.78 52.83 94.52 45.27 95.70
  Q 41.72 96.26 39.31 98.62
  A 0.63 0.63 0.0 0 1 38.31 98.45
  Z"
/>
<path fill="#0099ff" d="
  M 173.32 109.80
  Q 177.06 98.33 179.02 85.43
  A 0.62 0.62 0.0 0 1 179.52 84.92
  L 192.49 82.63
  A 0.31 0.31 0.0 0 1 192.84 82.99
  Q 188.33 107.91 180.17 127.31
  C 176.69 135.58 171.25 142.91 162.26 145.02
  Q 154.21 146.90 145.93 144.68
  Q 145.24 144.50 145.46 143.81
  L 149.36 131.74
  Q 149.55 131.17 150.12 131.35
  C 151.51 131.79 152.91 132.34 154.38 132.44
  Q 163.81 133.07 167.85 124.75
  A 0.78 0.77 -53.2 0 0 167.73 123.88
  Q 152.00 106.73 146.08 83.90
  Q 145.93 83.32 146.53 83.34
  L 158.74 83.86
  Q 159.41 83.89 159.54 84.55
  Q 162.21 98.17 172.66 109.93
  Q 173.11 110.44 173.32 109.80
  Z"
/>
<path fill="#0099ff" d="
  M 114.86 88.60
  C 118.84 84.64 124.59 81.46 130.15 83.49
  Q 136.98 85.99 138.58 93.06
  Q 143.03 112.74 137.63 132.84
  A 0.31 0.30 16.2 0 1 137.24 133.05
  L 125.53 129.03
  A 0.68 0.66 -74.3 0 1 125.10 128.24
  Q 127.76 116.83 127.98 106.07
  C 128.06 102.34 127.12 94.64 121.43 97.56
  Q 118.70 98.96 116.66 101.91
  Q 116.28 102.45 115.74 102.06
  L 112.69 99.84
  Q 112.17 99.46 112.06 100.10
  Q 109.69 114.50 115.86 128.54
  A 0.67 0.67 0.0 0 1 115.46 129.45
  L 104.24 133.13
  Q 103.59 133.34 103.36 132.70
  Q 96.18 113.27 99.51 95.19
  Q 100.38 90.47 103.37 84.02
  Q 103.69 83.33 104.41 83.55
  L 114.20 86.51
  Q 114.72 86.67 114.59 87.21
  L 114.32 88.30
  Q 114.03 89.43 114.86 88.60
  Z"
/>
<path fill="#0099ff" d="
  M 244.76 88.73
  C 247.15 86.27 250.02 84.36 253.30 83.33
  C 259.78 81.30 266.67 85.89 268.26 92.01
  Q 273.15 110.79 267.78 132.51
  Q 267.61 133.18 266.96 132.95
  L 255.54 129.04
  Q 254.95 128.83 255.10 128.23
  Q 257.80 117.10 257.98 105.82
  Q 258.04 101.95 256.81 99.27
  C 254.34 93.85 248.67 99.01 246.66 101.90
  Q 246.28 102.45 245.74 102.06
  L 242.69 99.84
  Q 242.12 99.42 242.01 100.12
  Q 239.80 115.24 245.90 128.57
  A 0.63 0.63 0.0 0 1 245.52 129.43
  L 234.25 133.13
  Q 233.62 133.33 233.38 132.72
  Q 226.49 114.64 229.28 96.36
  Q 230.14 90.71 233.50 83.85
  Q 233.75 83.35 234.28 83.51
  L 244.20 86.51
  Q 244.73 86.68 244.59 87.21
  L 244.27 88.45
  Q 243.99 89.53 244.76 88.73
  Z"
/>
<path fill="#0099ff" d="
  M 88.00 127.98
  L 77.29 133.09
  Q 76.74 133.35 76.51 132.79
  Q 73.25 124.70 72.47 118.64
  Q 70.42 102.53 75.90 85.53
  Q 76.05 85.05 76.53 85.20
  L 87.48 88.61
  A 0.57 0.57 0.0 0 1 87.85 89.34
  C 84.66 98.32 82.92 108.77 84.84 117.92
  C 85.51 121.11 87.06 124.21 88.29 127.23
  Q 88.49 127.74 88.00 127.98
  Z"
/>
<path fill="#0099ff" d="
  M 218.01 127.97
  L 207.30 133.08
  Q 206.74 133.35 206.51 132.78
  Q 202.98 124.07 202.28 117.25
  Q 200.70 101.82 205.86 85.65
  Q 206.06 85.05 206.66 85.24
  L 217.47 88.61
  A 0.58 0.57 -72.0 0 1 217.84 89.35
  C 214.66 98.34 212.92 108.78 214.84 117.92
  C 215.51 121.11 217.06 124.21 218.28 127.21
  Q 218.50 127.74 218.01 127.97
  Z"
/>
<path fill="#0099ff" d="
  M 95.46 205.97
  C 95.90 211.00 97.28 215.72 98.51 220.59
  Q 98.68 221.24 98.05 221.48
  L 86.31 225.80
  Q 86.02 225.91 85.95 225.62
  C 80.58 205.17 79.49 183.32 85.68 162.93
  Q 85.90 162.18 86.68 162.29
  L 90.92 162.83
  A 0.73 0.72 -78.3 0 1 91.52 163.75
  L 91.10 165.25
  Q 90.93 165.83 91.50 166.02
  L 102.98 169.96
  Q 103.63 170.19 103.77 169.52
  L 105.01 163.78
  A 0.88 0.87 0.4 0 1 105.70 163.11
  Q 114.51 161.54 120.42 168.41
  Q 122.58 170.92 123.17 173.85
  C 125.13 183.76 123.55 201.82 112.23 206.96
  Q 103.66 210.84 96.05 205.63
  Q 95.39 205.18 95.46 205.97
  Z
  M 98.23 178.29
  L 96.54 174.98
  Q 96.13 174.19 95.98 175.07
  Q 94.36 184.14 94.20 192.70
  Q 94.19 193.21 94.57 193.56
  Q 97.53 196.21 100.58 196.87
  C 105.95 198.04 109.94 194.91 111.07 189.76
  C 111.85 186.23 112.61 179.80 109.75 176.99
  C 106.99 174.28 102.04 176.07 99.43 178.50
  Q 98.69 179.20 98.23 178.29
  Z"
/>
<path fill="#0099ff" d="
  M 203.56 172.79
  Q 204.01 172.46 204.47 172.26
  Q 204.96 172.06 205.20 172.53
  C 210.92 183.54 212.10 195.30 204.67 205.10
  C 201.14 209.76 194.32 211.63 188.39 211.27
  Q 178.17 210.65 173.29 201.76
  C 169.50 194.87 169.43 183.83 171.95 176.57
  C 175.74 165.70 186.38 161.46 197.30 162.78
  Q 202.35 163.40 207.35 166.60
  Q 207.87 166.93 207.46 167.39
  Q 205.30 169.80 203.31 172.54
  Q 202.67 173.43 203.56 172.79
  Z
  M 194.69 178.58
  L 198.52 175.94
  A 0.35 0.35 0.0 0 0 198.45 175.33
  C 186.31 170.46 181.79 179.19 182.64 189.60
  C 182.97 193.57 185.51 198.47 190.05 198.40
  C 194.47 198.33 196.83 194.52 197.04 190.47
  Q 197.36 184.42 194.49 179.44
  Q 194.20 178.92 194.69 178.58
  Z"
/>
<path fill="#0099ff" d="
  M 143.79 172.19
  Q 152.79 166.18 164.24 162.74
  Q 164.61 162.63 164.57 163.01
  L 163.37 175.28
  A 0.88 0.88 0.0 0 1 162.66 176.05
  C 155.40 177.42 148.79 180.16 142.52 184.46
  Q 142.18 184.69 142.14 185.10
  C 141.47 192.26 143.22 200.39 144.99 207.48
  Q 145.15 208.11 144.51 208.28
  L 133.98 210.95
  Q 133.36 211.11 133.15 210.51
  C 129.19 199.56 129.17 187.34 129.89 175.90
  Q 130.28 169.70 132.10 163.34
  Q 132.26 162.77 132.85 162.86
  L 144.40 164.70
  Q 144.96 164.79 144.82 165.34
  L 143.20 171.77
  Q 142.95 172.75 143.79 172.19
  Z"
/>
</svg>
